HIERARCHY
ROOT Hips
{
 OFFSET 0.000000 0.000000 0.000000
 CHANNELS 6 Xposition Yposition Zposition Yrotation Xrotation Zrotation
 JOINT Chest
 {
  OFFSET 0.000000 11.395451 -0.039534
  CHANNELS 3 Yrotation Xrotation Zrotation
  JOINT Chest2
  {
   OFFSET 0.000000 9.398669 0.071813
   CHANNELS 3 Yrotation Xrotation Zrotation
   JOINT Chest3
   {
    OFFSET 0.000000 8.489801 0.000000
    CHANNELS 3 Yrotation Xrotation Zrotation
    JOINT Chest4
    {
     OFFSET 0.000000 8.489801 0.000000
     CHANNELS 3 Yrotation Xrotation Zrotation
     JOINT Neck
     {
      OFFSET 0.000000 12.404889 0.000000
      CHANNELS 3 Yrotation Xrotation Zrotation
      JOINT Head
      {
       OFFSET 0.000000 8.903270 0.092239
       CHANNELS 3 Yrotation Xrotation Zrotation
       End Site
       {
        OFFSET 0.000000 17.592497 0.007158
       }
      }
     }
     JOINT RightCollar
     {
      OFFSET -3.196775 6.966722 0.000000
      CHANNELS 3 Yrotation Xrotation Zrotation
      JOINT RightShoulder
      {
       OFFSET -15.955896 0.000000 0.000000
       CHANNELS 3 Yrotation Xrotation Zrotation
       JOINT RightElbow
       {
        OFFSET -24.792472 0.000000 0.000000
        CHANNELS 3 Yrotation Xrotation Zrotation
        JOINT RightWrist
        {
         OFFSET -20.900115 0.000000 0.025002
         CHANNELS 3 Yrotation Xrotation Zrotation
         End Site
         {
          OFFSET -16.056692 0.000000 0.000000
         }
        }
       }
      }
     }
     JOINT LeftCollar
     {
      OFFSET 3.196775 6.966722 0.000000
      CHANNELS 3 Yrotation Xrotation Zrotation
      JOINT LeftShoulder
      {
       OFFSET 15.955896 0.000000 0.000000
       CHANNELS 3 Yrotation Xrotation Zrotation
       JOINT LeftElbow
       {
        OFFSET 24.792472 0.000000 0.000000
        CHANNELS 3 Yrotation Xrotation Zrotation
        JOINT LeftWrist
        {
         OFFSET 20.900115 0.000000 0.025002
         CHANNELS 3 Yrotation Xrotation Zrotation
         End Site
         {
          OFFSET 16.056692 0.000000 0.000000
         }
        }
       }
      }
     }
    }
   }
  }
 }
 JOINT RightHip
 {
  OFFSET -9.568995 0.193718 0.019767
  CHANNELS 3 Yrotation Xrotation Zrotation
  JOINT RightKnee
  {
   OFFSET 0.000000 -56.649296 0.015402
   CHANNELS 3 Yrotation Xrotation Zrotation
   JOINT RightAnkle
   {
    OFFSET 0.000000 -41.365147 0.021264
    CHANNELS 3 Yrotation Xrotation Zrotation
    JOINT RightToe
    {
     OFFSET 0.000000 -7.465940 17.672538
     CHANNELS 3 Yrotation Xrotation Zrotation
     End Site
     {
      OFFSET 0.000000 -1.736315 7.837145
     }
    }
   }
  }
 }
 JOINT LeftHip
 {
  OFFSET 9.568995 0.193718 0.019767
  CHANNELS 3 Yrotation Xrotation Zrotation
  JOINT LeftKnee
  {
   OFFSET 0.000000 -56.649296 0.015402
   CHANNELS 3 Yrotation Xrotation Zrotation
   JOINT LeftAnkle
   {
    OFFSET 0.000000 -41.365147 0.021264
    CHANNELS 3 Yrotation Xrotation Zrotation
    JOINT LeftToe
    {
     OFFSET 0.000000 -7.465940 17.672538
     CHANNELS 3 Yrotation Xrotation Zrotation
     End Site
     {
      OFFSET 0.000000 -1.736315 7.837145
     }
    }
   }
  }
 }
}
MOTION
Frames: 5
Frame Time: 0.016667
197.856650 106.883387 373.750625 76.213812 -0.671824 -0.613637 -3.714766 6.997077 2.649765 -1.687852 3.088557 1.231506 -1.687852 3.088557 1.231506 -1.271818 2.313050 0.931951 -2.733707 13.673237 -1.105979 -4.723331 -10.784612 -0.995644 4.825875 1.720507 4.842730 10.447256 -19.316705 73.252541 6.718674 -0.818960 3.728589 -5.700677 -2.552558 2.709080 -2.038080 7.451091 -8.383150 -1.803858 -17.398164 -76.027041 -5.655020 8.171945 -6.228472 3.729771 -3.762558 -6.199812 4.228758 4.426622 2.553384 1.306403 -2.693890 -0.245326 6.566078 -4.424272 2.355954 0.000000 0.000000 0.000000 2.260718 1.364502 0.973550 -2.490021 6.416094 0.166433 -5.745808 -8.682455 -1.395416 0.000000 -0.000000 -0.000000
197.796234 106.870420 373.630638 76.092674 -0.730148 -0.501740 -3.718436 6.950718 2.537644 -1.687579 3.068826 1.181482 -1.687583 3.068825 1.181482 -1.271331 2.298388 0.894388 -2.736203 13.765156 -1.080120 -4.736757 -10.613145 -0.948602 4.691175 1.768617 5.056018 10.535965 -19.002246 73.397062 6.738279 -0.688098 3.711789 -5.614157 -2.527812 2.688071 -2.043375 7.470182 -8.256720 -1.616851 -17.248236 -76.320736 -5.361118 8.305277 -6.051677 3.757376 -3.736610 -6.154003 4.258563 4.405690 2.341153 1.324198 -2.650329 -0.108849 6.649434 -4.400950 2.314242 0.000000 0.000000 -0.000000 2.462757 1.391880 0.699231 -2.833554 6.403816 0.420397 -5.442271 -8.606331 -1.509453 0.000000 -0.000000 -0.000000
197.735818 106.857453 373.510650 75.971422 -0.788235 -0.389718 -3.721812 6.904136 2.425645 -1.687193 3.049004 1.131501 -1.687195 3.049002 1.131501 -1.270754 2.283658 0.856857 -2.738633 13.857133 -1.054445 -4.749934 -10.441567 -0.902002 4.556158 1.817866 5.268731 10.624840 -18.687253 73.540867 6.757505 -0.557236 3.694599 -5.527711 -2.502883 2.667004 -2.048974 7.489535 -8.130383 -1.430277 -17.097964 -76.613820 -5.066291 8.436568 -5.873837 3.785080 -3.710966 -6.108081 4.288732 4.384506 2.129015 1.341968 -2.606664 0.027613 6.732791 -4.377571 2.272608 -0.000000 0.000000 -0.000000 2.664914 1.420036 0.425173 -3.177376 6.393764 0.674137 -5.139004 -8.529545 -1.623212 0.000000 -0.000000 -0.000000
197.685784 106.847025 373.398112 75.870033 -0.856297 -0.299646 -3.734561 6.858671 2.325077 -1.691159 3.029544 1.086735 -1.691159 3.029544 1.086735 -1.273470 2.269181 0.823259 -2.737917 13.941872 -1.030948 -4.756375 -10.283546 -0.860591 4.430415 1.874389 5.469721 10.642909 -18.365885 73.717764 6.748068 -0.432613 3.669623 -5.447346 -2.480214 2.640578 -2.050365 7.507927 -8.009794 -1.254792 -16.960903 -76.875789 -4.798798 8.577758 -5.718129 3.821666 -3.675239 -6.074831 4.324393 4.378773 1.946595 1.355678 -2.554158 0.148710 6.795657 -4.356785 2.227531 -0.000000 0.000000 -0.000000 2.834734 1.462436 0.186611 -3.474965 6.388951 0.896511 -4.877093 -8.458854 -1.709933 0.000000 0.000000 0.000000
197.651316 106.840697 373.296505 75.797498 -0.939487 -0.241651 -3.762174 6.814727 2.241159 -1.701994 3.010557 1.049581 -1.701993 3.010558 1.049581 -1.281380 2.255025 0.795403 -2.732301 14.017356 -1.011590 -4.752059 -10.142925 -0.828666 4.317280 1.943420 5.652811 10.564148 -18.038650 73.943517 6.698265 -0.319987 3.629501 -5.377665 -2.459217 2.606426 -2.046200 7.524136 -7.897869 -1.089901 -16.840530 -77.095482 -4.562659 8.739672 -5.594368 3.878228 -3.616529 -6.068253 4.362213 4.398293 1.805929 1.371225 -2.491063 0.247711 6.826419 -4.338917 2.176145 0.000000 0.000000 -0.000000 2.947080 1.526660 -0.000912 -3.693731 6.388061 1.072328 -4.678774 -8.397486 -1.756496 0.000000 -0.000000 0.000000
